# xmcd
#
# Track frame offsets: 
#        150
#        12652
#        26105
#        36785
#        48178
#        59470
#        68522
#        82424
#        97732
#        109923
#        123631
#        140701
#        150323
#        166595
#        177110
#        189141
#        199889
#        210376
#        223739
#        233016
#        240960
#
# Disc length: 3411 seconds
#
# Revision: 0
# Processed by: cddbd v1.5.2PL0 Copyright (c) Steve Scherf et al.
# Submitted via: ExactAudioCopy v0.99pb5
#
DISCID=180d5115
DTITLE=The Company Store - Home Delivery
DYEAR=2004
DGENRE=Old Time
TTITLE0=Down At The Company Store
TTITLE1=Buttermilk Biscuits
TTITLE2=Red Clay Halo
TTITLE3=Love Of The Mountains
TTITLE4=Please Don't Put The Apple On The Top
TTITLE5=Logan County Blues
TTITLE6=Bill Morgan And His Gal
TTITLE7=Oak Grove Church
TTITLE8=Nellie Kane
TTITLE9=Hand Me Down My Walkin'g Cane
TTITLE10=17 Cents
TTITLE11=Bound To Ride
TTITLE12=Goin' Home To Richmond
TTITLE13=Crow Creek - Sugar In The Gourd
TTITLE14=I'll Remember You Love In My Prayers
TTITLE15=Watermelon Hangin' On The Vine
TTITLE16=Grandma's Feather Bed
TTITLE17=Nebuchadnezzar
TTITLE18=The Old Wood -Burnin' Stove
TTITLE19=Chasin' Grayson
TTITLE20=Kodak 1955 (Christmas)
EXTD=
EXTT0=
EXTT1=
EXTT2=
EXTT3=
EXTT4=
EXTT5=
EXTT6=
EXTT7=
EXTT8=
EXTT9=
EXTT10=
EXTT11=
EXTT12=
EXTT13=
EXTT14=
EXTT15=
EXTT16=
EXTT17=
EXTT18=
EXTT19=
EXTT20=
PLAYORDER=
